<?xml version="1.0" standalone="no"?>
<svg xmlns:xlink="http://www.w3.org/1999/xlink" id="wave" style="transform:rotate(0deg); transition: 0.3s" viewBox="0 0 1440 140" version="1.1" xmlns="http://www.w3.org/2000/svg"><defs><linearGradient id="sw-gradient-0" x1="0" x2="0" y1="1" y2="0"><stop stop-color="rgba(255, 255, 255, 1)" offset="0%"/><stop stop-color="rgba(255, 255, 255, 1)" offset="100%"/></linearGradient></defs><path style="transform:translate(0, 0px); opacity:1" fill="url(#sw-gradient-0)" d="M0,28L80,35C160,42,320,56,480,60.7C640,65,800,61,960,53.7C1120,47,1280,37,1440,46.7C1600,56,1760,84,1920,95.7C2080,107,2240,103,2400,84C2560,65,2720,33,2880,25.7C3040,19,3200,37,3360,51.3C3520,65,3680,75,3840,72.3C4000,70,4160,56,4320,56C4480,56,4640,70,4800,65.3C4960,61,5120,37,5280,30.3C5440,23,5600,33,5760,44.3C5920,56,6080,70,6240,63C6400,56,6560,28,6720,30.3C6880,33,7040,65,7200,65.3C7360,65,7520,33,7680,21C7840,9,8000,19,8160,23.3C8320,28,8480,28,8640,44.3C8800,61,8960,93,9120,100.3C9280,107,9440,89,9600,67.7C9760,47,9920,23,10080,23.3C10240,23,10400,47,10560,56C10720,65,10880,61,11040,65.3C11200,70,11360,84,11440,91L11520,98L11520,140L11440,140C11360,140,11200,140,11040,140C10880,140,10720,140,10560,140C10400,140,10240,140,10080,140C9920,140,9760,140,9600,140C9440,140,9280,140,9120,140C8960,140,8800,140,8640,140C8480,140,8320,140,8160,140C8000,140,7840,140,7680,140C7520,140,7360,140,7200,140C7040,140,6880,140,6720,140C6560,140,6400,140,6240,140C6080,140,5920,140,5760,140C5600,140,5440,140,5280,140C5120,140,4960,140,4800,140C4640,140,4480,140,4320,140C4160,140,4000,140,3840,140C3680,140,3520,140,3360,140C3200,140,3040,140,2880,140C2720,140,2560,140,2400,140C2240,140,2080,140,1920,140C1760,140,1600,140,1440,140C1280,140,1120,140,960,140C800,140,640,140,480,140C320,140,160,140,80,140L0,140Z"/></svg>