<?xml version="1.0" encoding="UTF-8"?><svg xmlns="http://www.w3.org/2000/svg" viewBox="0 0 509.2 509.2"><g id="Layer_1"><circle cx="254.6" cy="254.6" r="253.18" fill="#d30023" opacity=".19" stroke="#d30023" stroke-miterlimit="10" stroke-width="2.83"/></g><g id="Layer_7"><g><path d="M297.1,226.27c-7.34,19.14-24.56,34.66-47.75,43.08-12.75,4.63-25.18,5.62-35.88,5.01-18.89-1.08-32.34-7.17-32.34-7.17,0,0-21,11.35-39.56,12.85,0,0,8.44-12.85,14.91-28.22,0,0-49.01-52.68,4.87-98.22,52.5-44.38,130.59-9.88,137.75,36.25,2.04,13.15,2.27,25.28-2,36.42Z" fill="none" stroke="#d30023" stroke-miterlimit="10" stroke-width="11.34"/><path d="M348.03,247.1c-16.9-13.58-34.34-19.78-50.92-20.83-7.34,19.14-24.56,34.67-47.75,43.08-12.75,4.63-25.18,5.62-35.88,5.01-1.38,3.01-2.46,6.02-3.2,8.99-8.72,35.1,13.06,66.19,49.75,79.5,35.26,12.8,68.22-2.16,68.22-2.16,0,0,21,11.34,39.56,12.84,0,0-8.44-12.84-14.91-28.22,0,0,54-50.91-4.88-98.22Z" fill="none" stroke="#d30023" stroke-miterlimit="10" stroke-width="11.34"/></g></g></svg>