<?xml version="1.0" encoding="UTF-8"?><svg xmlns="http://www.w3.org/2000/svg" viewBox="0 0 509.2 509.2"><g id="Layer_1"><circle cx="254.6" cy="254.6" r="253.18" fill="#d30023" opacity=".19" stroke="#d30023" stroke-miterlimit="10" stroke-width="2.83"/></g><g id="Layer_5"><g><path d="M129.85,367.66h70.17v-27.3c0-4.29,3.5-7.8,7.8-7.8h23.39v35.09h15.59v-74.08c0-4.29,3.5-7.8,7.8-7.8h23.39v81.87h15.59v-120.85c0-4.29,3.5-7.8,7.8-7.8h23.39v128.65h15.59V200.02c0-4.29,3.5-7.8,7.8-7.8h23.39v175.43h7.81v11.7H129.85v-11.7h0Z" fill="#d30023" fill-rule="evenodd"/><polygon points="293.58 129.85 270.19 129.85 270.19 129.85 223.41 129.85 223.41 153.24 256.37 153.24 129.85 279.77 129.85 307.33 270.19 166.99 270.19 200.02 293.58 200.02 293.58 153.24 293.58 153.24 293.58 129.85 293.58 129.85 293.58 129.85 293.58 129.85" fill="#d30023" fill-rule="evenodd"/></g></g></svg>