<?xml version="1.0" encoding="UTF-8"?><svg xmlns="http://www.w3.org/2000/svg" viewBox="0 0 509.2 509.2"><g id="Layer_1"><circle cx="254.6" cy="254.6" r="253.18" fill="#d30023" opacity=".19" stroke="#d30023" stroke-miterlimit="10" stroke-width="2.83"/></g><g id="Layer_6"><path d="M254.6,168.85c-23.61,0-42.88,19.26-42.88,42.88s19.26,42.88,42.88,42.88,42.87-19.26,42.87-42.88-19.26-42.88-42.87-42.88Zm0,85.75c-27.63,0-51.08,17.67-60.13,42.21-4.69-5.02-10.22-9.21-16.25-12.56,7.37-7.7,12.06-18.17,12.06-29.64,0-23.53-19.34-42.88-42.88-42.88s-42.88,19.34-42.88,42.88c0,11.47,4.69,21.94,12.06,29.64-19.85,10.97-33.5,31.91-33.5,56.11h21.44c0-23.78,19.09-42.88,42.88-42.88s42.88,19.09,42.88,42.88h128.62c0-23.78,19.09-42.88,42.88-42.88s42.88,19.09,42.88,42.88h21.44c0-24.2-13.65-45.14-33.5-56.11,7.37-7.7,12.06-18.17,12.06-29.64,0-23.53-19.34-42.88-42.88-42.88s-42.88,19.34-42.88,42.88c0,11.47,4.69,21.94,12.06,29.64-6.03,3.35-11.56,7.54-16.16,12.56-9.13-24.54-32.57-42.21-60.21-42.21Zm-107.19-21.44c11.97,0,21.44,9.46,21.44,21.44s-9.46,21.44-21.44,21.44-21.44-9.46-21.44-21.44,9.46-21.44,21.44-21.44Zm214.38,0c11.97,0,21.44,9.46,21.44,21.44s-9.46,21.44-21.44,21.44-21.44-9.46-21.44-21.44,9.46-21.44,21.44-21.44Z" fill="#d30023"/></g></svg>