<?xml version="1.0" encoding="UTF-8"?><svg xmlns="http://www.w3.org/2000/svg" viewBox="0 0 509.2 509.2"><g id="Layer_1"><circle cx="254.6" cy="254.6" r="253.18" fill="#d30023" opacity=".19" stroke="#d30023" stroke-miterlimit="10" stroke-width="2.83"/></g><g id="Layer_4"><g><path d="M311.23,234.11c-2.44,0-4.79,.67-6.84,1.86-2.06-1.2-4.4-1.86-6.82-1.86-7.53,0-13.66,6.13-13.66,13.66s6.13,13.66,13.66,13.66c2.43,0,4.77-.67,6.83-1.87,2.06,1.2,4.4,1.87,6.83,1.87,7.53,0,13.66-6.13,13.66-13.66s-6.13-13.66-13.66-13.66Zm-13.66,20.49c-3.77,0-6.83-3.06-6.83-6.83s3.06-6.83,6.83-6.83c.58,0,1.15,.07,1.7,.22-.99,1.78-1.7,4.29-1.7,6.61,0,2.09,.61,4.65,1.7,6.61-.55,.14-1.12,.22-1.7,.22Zm13.66,0c-3.52,0-6.83-2.82-6.83-6.83s3.25-6.83,6.83-6.83c3.77,0,6.83,3.06,6.83,6.83s-3.06,6.83-6.83,6.83Z" fill="#d30023" stroke="#d30023" stroke-miterlimit="10" stroke-width="2.83"/><path d="M258.02,244.36h-6.83c-1.89,0-3.41,1.53-3.41,3.41s1.53,3.41,3.41,3.41h6.83c1.89,0,3.41-1.53,3.41-3.41s-1.53-3.41-3.41-3.41Z" fill="#d30023" stroke="#d30023" stroke-miterlimit="10" stroke-width="2.83"/><path d="M346.8,176.06h-27.32v-6.83c0-9.41-7.66-17.07-17.07-17.07-3.86,0-7.38,1.34-10.24,3.5v-.09c0-9.41-7.66-17.07-17.07-17.07-3.86,0-7.38,1.34-10.24,3.5v-13.75c0-9.41-7.66-17.07-17.07-17.07s-17.07,7.66-17.07,17.07v6.92c-2.86-2.17-6.39-3.5-10.24-3.5-9.41,0-17.07,7.66-17.07,17.07v27.32h-40.98c-1.89,0-3.41,1.53-3.41,3.41,0,47.73,0-42.89,0,102.45,0,1.89,1.53,3.41,3.41,3.41h23.9v14.49c0,9.1,3.3,17.89,9.29,24.74l10.5,12h-9.55c-1.89,0-3.41,1.53-3.41,3.41v27.32c0,1.89,1.53,3.41,3.41,3.41h6.83v23.9c0,1.89,1.53,3.41,3.41,3.41s3.41-1.53,3.41-3.41v-23.9h95.62v23.9c0,1.89,1.53,3.41,3.41,3.41s3.41-1.53,3.41-3.41v-23.9h6.83c1.89,0,3.41-1.53,3.41-3.41v-27.32c0-1.89-1.53-3.41-3.41-3.41h-13.66v-18.83c8.58-7.09,13.66-17.8,13.66-28.98v-3.41h27.32c1.89,0,3.41-1.53,3.41-3.41,0-151.59,0-50.39,0-102.45,0-1.89-1.53-3.41-3.41-3.41Zm-44.39-17.07c5.65,0,10.24,4.6,10.24,10.24v6.83h-20.49v-6.83c0-5.65,4.6-10.24,10.24-10.24Zm-27.32-13.66c5.65,0,10.24,4.6,10.24,10.24v20.49h-20.49v-20.49c0-5.65,4.6-10.24,10.24-10.24Zm-37.56-17.07c0-5.65,4.6-10.24,10.24-10.24s10.24,4.6,10.24,10.24v47.81h-20.49v-47.81Zm-27.32,20.49c0-5.65,4.6-10.24,10.24-10.24s10.24,4.6,10.24,10.24v27.32h-20.49v-27.32Zm133.18,34.15v10.24H165.82v-10.24h177.57Zm0,27.32H165.82v-10.24h177.57v10.24Zm-27.32,153.67h-116.11v-20.49h116.11v20.49Zm-3.41-75.13c0,9.62-4.6,18.81-12.3,24.59-.86,.64-1.36,1.66-1.36,2.73v20.49h-83.82l-14.43-16.49c-4.9-5.61-7.61-12.8-7.61-20.24v-55.46c0-5.65,4.6-10.24,10.24-10.24s10.24,4.76,10.24,10.24v37.56c0,1.89,1.53,3.41,3.41,3.41,15.06,0,27.32,12.26,27.32,27.32v3.41c0,1.89,1.53,3.41,3.41,3.41s3.41-1.53,3.41-3.41v-3.41c0-11.18-5.42-21.09-13.75-27.32h75.21v3.41Zm-92.2-10.24v-13.66h13.66c1.89,0,3.41-1.53,3.41-3.41s-1.53-3.41-3.41-3.41h-13.66v-6.83h13.66c1.89,0,3.41-1.53,3.41-3.41s-1.53-3.41-3.41-3.41h-13.66c0-9.53-7.81-17.07-17.07-17.07s-17.07,7.66-17.07,17.07h-6.83c-1.89,0-3.41,1.53-3.41,3.41s1.53,3.41,3.41,3.41h6.83v6.83h-6.83c-1.89,0-3.41,1.53-3.41,3.41s1.53,3.41,3.41,3.41h6.83v13.66h-20.49v-61.47h177.57v61.47h-122.93Z" fill="#d30023" stroke="#d30023" stroke-miterlimit="10" stroke-width="2.83"/></g></g></svg>