<?xml version="1.0" encoding="UTF-8"?><svg xmlns="http://www.w3.org/2000/svg" viewBox="0 0 509.2 509.2"><g id="Layer_1"><circle cx="254.6" cy="254.6" r="253.18" fill="#d30023" opacity=".19" stroke="#d30023" stroke-miterlimit="10" stroke-width="2.83"/></g><g id="Layer_3"><g id="Layer_32"><path d="M254.6,398.03l-1.43-.57c-67.81-26.93-112.32-92.51-112.32-165.47v-81.25h1.45c37.63,0,74.29-11.92,104.72-34.06l7.58-5.51,7.58,5.51c30.43,22.13,67.09,34.06,104.72,34.06h1.45v81.25c0,72.96-44.51,138.53-112.32,165.47l-1.43,.57Z" fill="none" stroke="#d30023" stroke-miterlimit="10" stroke-width="11.34"/><path d="M254.6,150.26l.05,.04c23.69,18.43,52.7,29.36,82.58,31.27v52.01c0,27.86-7.87,55.03-22.77,78.57-14.62,23.11-35.3,41.6-59.86,53.55-24.56-11.95-45.24-30.44-59.86-53.55-14.9-23.54-22.77-50.71-22.77-78.57v-52.01c29.88-1.91,58.9-12.84,82.57-31.26l.06-.04m0-14.35l-7.01,5.44c-24.31,18.91-54.22,29.18-85.02,29.18h-1.94v63.05c0,61.16,35.24,116.84,90.51,143.03l3.46,1.64,3.46-1.64c55.27-26.18,90.51-81.87,90.51-143.03v-63.05h-1.94c-30.79,0-60.71-10.27-85.02-29.18l-7.01-5.44h0Z" fill="#d30023"/><path d="M287.77,243.09v56.45h-66.34v-56.45h66.34m1.45-11.34h-69.24c-5.46,0-9.89,4.43-9.89,9.89v59.35c0,5.46,4.43,9.89,9.89,9.89h69.24c5.46,0,9.89-4.43,9.89-9.89v-59.35c0-5.46-4.43-9.89-9.89-9.89h0Z" fill="#d30023"/><path d="M283.1,231.75v-10.55c0-15.74-12.76-28.5-28.5-28.5h0c-15.74,0-28.5,12.76-28.5,28.5v10.55" fill="none" stroke="#d30023" stroke-miterlimit="10" stroke-width="11.34"/><path d="M259.39,268.78c.11,.39,.16,.81,.16,1.24v19.79c0,2.73-2.22,4.94-4.95,4.94s-4.95-2.21-4.95-4.94v-19.79c0-.43,.05-.85,.16-1.24-3.04-1.68-5.1-4.92-5.1-8.65,0-5.46,4.43-9.89,9.89-9.89s9.89,4.43,9.89,9.89c0,3.73-2.06,6.97-5.1,8.65Z" fill="#d30023"/></g></g></svg>