<?xml version="1.0" encoding="UTF-8"?><svg xmlns="http://www.w3.org/2000/svg" viewBox="0 0 509.2 509.2"><g id="Layer_1"><circle cx="254.6" cy="254.6" r="253.18" fill="#d30023" opacity=".19" stroke="#d30023" stroke-miterlimit="10" stroke-width="2.83"/></g><g id="Layer_2"><path d="M311.97,133.12c-11.53,0-21.46,4.69-27.81,11.84-3.94,4.44-6.15,9.7-7.58,15.16H129.74c-5.59-.08-10.19,4.39-10.27,9.98-.08,5.59,4.39,10.19,9.98,10.27,.1,0,.19,0,.29,0h146.83c1.43,5.46,3.64,10.72,7.58,15.16,6.35,7.15,16.28,11.84,27.81,11.84s21.46-4.69,27.81-11.84c3.94-4.44,6.15-9.7,7.58-15.16h32.1c5.59,.08,10.19-4.39,10.27-9.98s-4.39-10.19-9.98-10.27c-.1,0-.19,0-.29,0h-32.1c-1.43-5.46-3.64-10.72-7.58-15.16-6.35-7.15-16.28-11.84-27.81-11.84Zm0,20.25c6.47,0,10.04,2.06,12.68,5.04s4.19,7.34,4.19,11.84-1.55,8.86-4.19,11.84c-2.64,2.97-6.21,5.04-12.68,5.04s-10.04-2.06-12.68-5.04c-2.64-2.97-4.19-7.34-4.19-11.84s1.55-8.86,4.19-11.84,6.21-5.04,12.68-5.04Zm-114.73,64.12c-11.53,0-21.46,4.69-27.81,11.84-3.94,4.44-6.15,9.7-7.58,15.16h-32.1c-5.59-.08-10.19,4.39-10.27,9.98-.08,5.59,4.39,10.19,9.98,10.27,.1,0,.19,0,.29,0h32.1c1.43,5.46,3.64,10.72,7.58,15.16,6.35,7.15,16.28,11.84,27.81,11.84s21.46-4.69,27.81-11.84c3.94-4.44,6.15-9.7,7.58-15.16h146.83c5.59,.08,10.19-4.39,10.27-9.98,.08-5.59-4.39-10.19-9.98-10.27-.1,0-.19,0-.29,0H232.63c-1.43-5.46-3.64-10.72-7.58-15.16-6.35-7.15-16.28-11.84-27.81-11.84Zm0,20.25c6.47,0,10.04,2.06,12.68,5.04s4.19,7.34,4.19,11.84-1.55,8.86-4.19,11.84-6.21,5.04-12.68,5.04-10.04-2.06-12.68-5.04c-2.64-2.97-4.19-7.34-4.19-11.84s1.55-8.86,4.19-11.84c2.64-2.97,6.21-5.04,12.68-5.04Zm101.24,64.12c-11.53,0-21.46,4.69-27.81,11.84-3.94,4.44-6.15,9.7-7.58,15.16H129.74c-5.59-.08-10.19,4.39-10.27,9.98-.08,5.59,4.39,10.19,9.98,10.27,.1,0,.19,0,.29,0h133.33c1.43,5.46,3.64,10.72,7.58,15.16,6.35,7.15,16.28,11.84,27.81,11.84s21.46-4.69,27.81-11.84c3.94-4.44,6.15-9.7,7.58-15.16h45.6c5.59,.08,10.19-4.39,10.27-9.98s-4.39-10.19-9.98-10.27c-.1,0-.19,0-.29,0h-45.6c-1.43-5.46-3.64-10.72-7.58-15.16-6.35-7.15-16.28-11.84-27.81-11.84Zm0,20.25c6.47,0,10.04,2.06,12.68,5.04s4.19,7.34,4.19,11.84-1.55,8.86-4.19,11.84c-2.64,2.97-6.21,5.04-12.68,5.04s-10.04-2.06-12.68-5.04c-2.64-2.97-4.19-7.34-4.19-11.84s1.55-8.86,4.19-11.84,6.21-5.04,12.68-5.04Z" fill="#d30023"/></g></svg>